P3
40 30
255
0 0 0  6 6 6  12 12 12  19 19 19  25 25 25  32 32 32  38 38 38  44 44 44  51 51 51  57 57 57  64 64 64  70 70 70  76 76 76  83 83 83  89 89 89  96 96 96  102 102 102  108 108 108  115 115 115  121 121 121  128 128 128  134 134 134  140 140 140  147 147 147  153 153 153  160 160 160  166 166 166  172 172 172  179 179 179  185 185 185  192 192 192  198 198 198  204 204 204  211 211 211  217 217 217  224 224 224  230 230 230  236 236 236  243 243 243  249 249 249
0 0 0  6 6 6  12 12 12  19 19 19  25 25 25  32 32 32  38 38 38  44 44 44  51 51 51  57 57 57  64 64 64  70 70 70  76 76 76  83 83 83  89 89 89  96 96 96  102 102 102  108 108 108  115 115 115  121 121 121  128 128 128  134 134 134  140 140 140  147 147 147  153 153 153  160 160 160  166 166 166  172 172 172  179 179 179  185 185 185  192 192 192  198 198 198  204 204 204  211 211 211  217 217 217  224 224 224  230 230 230  236 236 236  243 243 243  249 249 249
0 0 0  6 6 6  12 12 12  19 19 19  25 25 25  32 32 32  38 38 38  44 44 44  51 51 51  57 57 57  64 64 64  70 70 70  76 76 76  83 83 83  89 89 89  96 96 96  102 102 102  108 108 108  115 115 115  121 121 121  128 128 128  134 134 134  140 140 140  147 147 147  153 153 153  160 160 160  166 166 166  172 172 172  179 179 179  185 185 185  192 192 192  198 198 198  204 204 204  211 211 211  217 217 217  224 224 224  230 230 230  236 236 236  243 243 243  249 249 249
0 0 0  6 6 6  12 12 12  19 19 19  25 25 25  32 32 32  38 38 38  44 44 44  51 51 51  57 57 57  64 64 64  70 70 70  76 76 76  83 83 83  89 89 89  96 96 96  102 102 102  108 108 108  115 115 115  121 121 121  128 128 128  134 134 134  140 140 140  147 147 147  153 153 153  160 160 160  166 166 166  172 172 172  179 179 179  185 185 185  192 192 192  198 198 198  204 204 204  211 211 211  217 217 217  224 224 224  230 230 230  236 236 236  243 243 243  249 249 249
0 0 0  6 6 6  12 12 12  19 19 19  25 25 25  32 32 32  38 38 38  44 44 44  51 51 51  57 57 57  64 64 64  70 70 70  76 76 76  83 83 83  89 89 89  96 96 96  102 102 102  108 108 108  115 115 115  121 121 121  128 128 128  134 134 134  140 140 140  147 147 147  153 153 153  160 160 160  166 166 166  172 172 172  179 179 179  185 185 185  192 192 192  198 198 198  204 204 204  211 211 211  217 217 217  224 224 224  230 230 230  236 236 236  243 243 243  249 249 249
0 0 0  6 6 6  12 12 12  19 19 19  25 25 25  32 32 32  38 38 38  44 44 44  51 51 51  57 57 57  64 64 64  70 70 70  76 76 76  83 83 83  89 89 89  96 96 96  102 102 102  108 108 108  115 115 115  121 121 121  128 128 128  134 134 134  140 140 140  147 147 147  153 153 153  160 160 160  166 166 166  172 172 172  179 179 179  185 185 185  192 192 192  198 198 198  204 204 204  211 211 211  217 217 217  224 224 224  230 230 230  236 236 236  243 243 243  249 249 249
0 0 0  6 6 6  12 12 12  19 19 19  25 25 25  32 32 32  38 38 38  44 44 44  51 51 51  57 57 57  64 64 64  70 70 70  76 76 76  83 83 83  89 89 89  96 96 96  102 102 102  108 108 108  115 115 115  121 121 121  128 128 128  134 134 134  140 140 140  147 147 147  153 153 153  160 160 160  166 166 166  172 172 172  179 179 179  185 185 185  192 192 192  198 198 198  204 204 204  211 211 211  217 217 217  224 224 224  230 230 230  236 236 236  243 243 243  249 249 249
0 0 0  6 6 6  12 12 12  19 19 19  25 25 25  32 32 32  38 38 38  44 44 44  51 51 51  57 57 57  64 64 64  70 70 70  76 76 76  83 83 83  89 89 89  96 96 96  102 102 102  108 108 108  115 115 115  121 121 121  128 128 128  134 134 134  140 140 140  147 147 147  153 153 153  160 160 160  166 166 166  172 172 172  179 179 179  185 185 185  192 192 192  198 198 198  204 204 204  211 211 211  217 217 217  224 224 224  230 230 230  236 236 236  243 243 243  249 249 249
0 0 0  6 6 6  12 12 12  19 19 19  25 25 25  32 32 32  38 38 38  44 44 44  51 51 51  57 57 57  64 64 64  70 70 70  76 76 76  83 83 83  89 89 89  96 96 96  102 102 102  108 108 108  115 115 115  121 121 121  128 128 128  134 134 134  140 140 140  147 147 147  153 153 153  160 160 160  166 166 166  172 172 172  179 179 179  185 185 185  192 192 192  198 198 198  204 204 204  211 211 211  217 217 217  224 224 224  230 230 230  236 236 236  243 243 243  249 249 249
0 0 0  6 6 6  12 12 12  19 19 19  25 25 25  32 32 32  38 38 38  44 44 44  51 51 51  57 57 57  64 64 64  70 70 70  76 76 76  83 83 83  89 89 89  96 96 96  102 102 102  108 108 108  115 115 115  121 121 121  128 128 128  134 134 134  140 140 140  147 147 147  153 153 153  160 160 160  166 166 166  172 172 172  179 179 179  185 185 185  192 192 192  198 198 198  204 204 204  211 211 211  217 217 217  224 224 224  230 230 230  236 236 236  243 243 243  249 249 249
0 0 0  6 6 6  12 12 12  19 19 19  25 25 25  32 32 32  38 38 38  44 44 44  51 51 51  57 57 57  64 64 64  70 70 70  76 76 76  83 83 83  89 89 89  96 96 96  102 102 102  108 108 108  115 115 115  121 121 121  128 128 128  134 134 134  140 140 140  147 147 147  153 153 153  160 160 160  166 166 166  172 172 172  179 179 179  185 185 185  192 192 192  198 198 198  204 204 204  211 211 211  217 217 217  224 224 224  230 230 230  236 236 236  243 243 243  249 249 249
0 0 0  6 6 6  12 12 12  19 19 19  25 25 25  32 32 32  38 38 38  44 44 44  51 51 51  57 57 57  3 3 3     3 3 3     3 3 3     83 83 83  89 89 89  96 96 96  102 102 102  108 108 108  115 115 115  121 121 121  128 128 128  134 134 134  140 140 140  147 147 147  153 153 153  160 160 160  166 166 166  172 172 172  179 179 179  185 185 185  192 192 192  198 198 198  204 204 204  211 211 211  217 217 217  224 224 224  230 230 230  236 236 236  243 243 243  249 249 249
0 0 0  6 6 6  12 12 12  19 19 19  25 25 25  32 32 32  38 38 38  44 44 44  51 51 51  57 57 57  3 3 3     3 3 3     3 3 3     83 83 83  89 89 89  96 96 96  102 102 102  108 108 108  115 115 115  121 121 121  128 128 128  134 134 134  140 140 140  147 147 147  153 153 153  160 160 160  166 166 166  172 172 172  179 179 179  185 185 185  192 192 192  198 198 198  204 204 204  211 211 211  217 217 217  224 224 224  230 230 230  236 236 236  243 243 243  249 249 249
0 0 0  6 6 6  12 12 12  19 19 19  25 25 25  32 32 32  38 38 38  44 44 44  51 51 51  57 57 57  3 3 3     3 3 3     3 3 3     83 83 83  89 89 89  96 96 96  102 102 102  108 108 108  115 115 115  121 121 121  128 128 128  134 134 134  140 140 140  147 147 147  153 153 153  160 160 160  166 166 166  172 172 172  179 179 179  185 185 185  192 192 192  198 198 198  204 204 204  211 211 211  217 217 217  224 224 224  230 230 230  236 236 236  243 243 243  249 249 249
0 0 0  6 6 6  12 12 12  19 19 19  25 25 25  32 32 32  38 38 38  44 44 44  51 51 51  57 57 57  64 64 64  70 70 70  76 76 76  83 83 83  89 89 89  96 96 96  102 102 102  108 108 108  115 115 115  121 121 121  128 128 128  134 134 134  140 140 140  147 147 147  153 153 153  160 160 160  166 166 166  172 172 172  179 179 179  185 185 185  192 192 192  198 198 198  204 204 204  211 211 211  217 217 217  224 224 224  230 230 230  236 236 236  243 243 243  249 249 249
0 0 0  6 6 6  12 12 12  19 19 19  25 25 25  32 32 32  38 38 38  44 44 44  51 51 51  57 57 57  64 64 64  70 70 70  76 76 76  83 83 83  89 89 89  96 96 96  102 102 102  108 108 108  115 115 115  121 121 121  128 128 128  134 134 134  140 140 140  147 147 147  153 153 153  160 160 160  166 166 166  172 172 172  179 179 179  185 185 185  192 192 192  198 198 198  204 204 204  211 211 211  217 217 217  224 224 224  230 230 230  236 236 236  243 243 243  249 249 249
0 0 0  6 6 6  12 12 12  19 19 19  25 25 25  32 32 32  38 38 38  44 44 44  51 51 51  57 57 57  64 64 64  70 70 70  76 76 76  83 83 83  89 89 89  96 96 96  102 102 102  108 108 108  115 115 115  121 121 121  128 128 128  134 134 134  140 140 140  147 147 147  153 153 153  160 160 160  166 166 166  172 172 172  179 179 179  185 185 185  192 192 192  198 198 198  204 204 204  211 211 211  217 217 217  224 224 224  230 230 230  236 236 236  243 243 243  249 249 249
0 0 0  6 6 6  12 12 12  19 19 19  25 25 25  32 32 32  38 38 38  44 44 44  51 51 51  57 57 57  64 64 64  70 70 70  76 76 76  83 83 83  89 89 89  96 96 96  102 102 102  108 108 108  115 115 115  121 121 121  128 128 128  134 134 134  140 140 140  147 147 147  153 153 153  160 160 160  166 166 166  172 172 172  179 179 179  185 185 185  192 192 192  198 198 198  204 204 204  211 211 211  217 217 217  224 224 224  230 230 230  236 236 236  243 243 243  249 249 249
0 0 0  6 6 6  12 12 12  19 19 19  25 25 25  32 32 32  38 38 38  44 44 44  51 51 51  57 57 57  64 64 64  70 70 70  76 76 76  83 83 83  89 89 89  96 96 96  102 102 102  108 108 108  115 115 115  121 121 121  128 128 128  134 134 134  140 140 140  147 147 147  153 153 153  160 160 160  166 166 166  172 172 172  179 179 179  185 185 185  192 192 192  198 198 198  204 204 204  211 211 211  217 217 217  224 224 224  230 230 230  236 236 236  243 243 243  249 249 249
0 0 0  6 6 6  12 12 12  19 19 19  25 25 25  32 32 32  38 38 38  44 44 44  51 51 51  57 57 57  64 64 64  70 70 70  76 76 76  83 83 83  89 89 89  96 96 96  102 102 102  108 108 108  115 115 115  121 121 121  128 128 128  134 134 134  140 140 140  147 147 147  153 153 153  160 160 160  166 166 166  172 172 172  179 179 179  185 185 185  192 192 192  198 198 198  204 204 204  211 211 211  217 217 217  224 224 224  230 230 230  236 236 236  243 243 243  249 249 249
0 0 0  6 6 6  12 12 12  19 19 19  25 25 25  32 32 32  38 38 38  44 44 44  51 51 51  57 57 57  64 64 64  70 70 70  76 76 76  83 83 83  89 89 89  96 96 96  102 102 102  108 108 108  115 115 115  121 121 121  128 128 128  134 134 134  140 140 140  147 147 147  153 153 153  160 160 160  166 166 166  172 172 172  179 179 179  185 185 185  192 192 192  198 198 198  204 204 204  211 211 211  217 217 217  224 224 224  230 230 230  236 236 236  243 243 243  249 249 249
0 0 0  6 6 6  12 12 12  19 19 19  25 25 25  32 32 32  38 38 38  44 44 44  51 51 51  57 57 57  64 64 64  70 70 70  76 76 76  83 83 83  89 89 89  96 96 96  102 102 102  108 108 108  115 115 115  121 121 121  128 128 128  134 134 134  140 140 140  147 147 147  153 153 153  160 160 160  166 166 166  172 172 172  179 179 179  185 185 185  192 192 192  198 198 198  204 204 204  211 211 211  217 217 217  224 224 224  230 230 230  236 236 236  243 243 243  249 249 249
0 0 0  6 6 6  12 12 12  19 19 19  25 25 25  32 32 32  38 38 38  44 44 44  51 51 51  57 57 57  64 64 64  70 70 70  76 76 76  83 83 83  89 89 89  96 96 96  102 102 102  108 108 108  115 115 115  121 121 121  128 128 128  134 134 134  140 140 140  147 147 147  153 153 153  160 160 160  166 166 166  172 172 172  179 179 179  185 185 185  192 192 192  198 198 198  204 204 204  211 211 211  217 217 217  224 224 224  230 230 230  236 236 236  243 243 243  249 249 249
0 0 0  6 6 6  12 12 12  19 19 19  25 25 25  32 32 32  38 38 38  44 44 44  51 51 51  57 57 57  64 64 64  70 70 70  76 76 76  83 83 83  89 89 89  96 96 96  102 102 102  108 108 108  115 115 115  121 121 121  128 128 128  134 134 134  140 140 140  147 147 147  153 153 153  160 160 160  166 166 166  172 172 172  179 179 179  185 185 185  192 192 192  198 198 198  204 204 204  211 211 211  217 217 217  224 224 224  230 230 230  236 236 236  243 243 243  249 249 249
0 0 0  6 6 6  12 12 12  19 19 19  25 25 25  32 32 32  38 38 38  44 44 44  51 51 51  57 57 57  64 64 64  70 70 70  76 76 76  83 83 83  89 89 89  96 96 96  102 102 102  108 108 108  115 115 115  121 121 121  128 128 128  134 134 134  140 140 140  147 147 147  153 153 153  160 160 160  166 166 166  172 172 172  179 179 179  185 185 185  192 192 192  198 198 198  204 204 204  211 211 211  217 217 217  224 224 224  230 230 230  236 236 236  243 243 243  249 249 249
0 0 0  6 6 6  12 12 12  19 19 19  25 25 25  32 32 32  38 38 38  44 44 44  51 51 51  57 57 57  64 64 64  70 70 70  76 76 76  83 83 83  89 89 89  96 96 96  102 102 102  108 108 108  115 115 115  121 121 121  128 128 128  134 134 134  140 140 140  147 147 147  153 153 153  160 160 160  166 166 166  172 172 172  179 179 179  185 185 185  192 192 192  198 198 198  204 204 204  211 211 211  217 217 217  224 224 224  230 230 230  236 236 236  243 243 243  249 249 249
0 0 0  6 6 6  12 12 12  19 19 19  25 25 25  32 32 32  38 38 38  44 44 44  51 51 51  57 57 57  64 64 64  70 70 70  76 76 76  83 83 83  89 89 89  96 96 96  102 102 102  108 108 108  115 115 115  121 121 121  128 128 128  134 134 134  140 140 140  147 147 147  153 153 153  160 160 160  166 166 166  172 172 172  179 179 179  185 185 185  192 192 192  198 198 198  204 204 204  211 211 211  217 217 217  224 224 224  230 230 230  236 236 236  243 243 243  249 249 249
0 0 0  6 6 6  12 12 12  19 19 19  25 25 25  32 32 32  38 38 38  44 44 44  51 51 51  57 57 57  64 64 64  70 70 70  76 76 76  83 83 83  89 89 89  96 96 96  102 102 102  108 108 108  115 115 115  121 121 121  128 128 128  134 134 134  140 140 140  147 147 147  153 153 153  160 160 160  166 166 166  172 172 172  179 179 179  185 185 185  192 192 192  198 198 198  204 204 204  211 211 211  217 217 217  224 224 224  230 230 230  236 236 236  243 243 243  249 249 249
0 0 0  6 6 6  12 12 12  19 19 19  25 25 25  32 32 32  38 38 38  44 44 44  51 51 51  57 57 57  64 64 64  70 70 70  76 76 76  83 83 83  89 89 89  96 96 96  102 102 102  108 108 108  115 115 115  121 121 121  128 128 128  134 134 134  140 140 140  147 147 147  153 153 153  160 160 160  166 166 166  172 172 172  179 179 179  185 185 185  192 192 192  198 198 198  204 204 204  211 211 211  217 217 217  224 224 224  230 230 230  236 236 236  243 243 243  249 249 249
0 0 0  6 6 6  12 12 12  19 19 19  25 25 25  32 32 32  38 38 38  44 44 44  51 51 51  57 57 57  64 64 64  70 70 70  76 76 76  83 83 83  89 89 89  96 96 96  102 102 102  108 108 108  115 115 115  121 121 121  128 128 128  134 134 134  140 140 140  147 147 147  153 153 153  160 160 160  166 166 166  172 172 172  179 179 179  185 185 185  192 192 192  198 198 198  204 204 204  211 211 211  217 217 217  224 224 224  230 230 230  236 236 236  243 243 243  249 249 249
