P2
# PATR
84 42
15
0  0  0  0  0  0  0  0  0  0  0  0  0  0  0  0  0  0  0  0  0  0  0  0  0  0  0  0  0  0  0  0  0  0  0  0  0  0  0  0  0  0  0  0  0  0  0  0  0  0  0  0  0  0  0  0  0  0  0  0  0  0  0  0  0  0  0  0  0  0  0  0  0  0  0  0  0  0  0  0  0  0  0  0
0  3  3  3  3  0  0  7  7  7  7  0 11 11 11 11 11  0  0 15 15 15 15  0  0 11 11 11 11  0  0  7  7  7  7  0  0  3  0  0  3  0  0  3  3  3  3  0  0  7  7  7  7  0 11 11 11 11 11  0  0 15 15 15 15  0  0 11 11 11 11  0  0  7  7  7  7  0  0  3  0  0  3  0
0  3  0  0  3  0  0  7  0  0  7  0  0  0 11  0  0  0  0 15  0  0 15  0  0  0  0 11  0  0  0  7  0  0  0  0  0  3  0  3  0  0  0  3  0  0  3  0  0  7  0  0  7  0  0  0 11  0  0  0  0 15  0  0 15  0  0  0  0 11  0  0  0  7  0  0  0  0  0  3  0  3  0  0
0  3  3  3  3  0  0  7  7  7  7  0  0  0 11  0  0  0  0 15 15 15 15  0  0  0  0 11  0  0  0  7  0  0  0  0  0  3  3  0  0  0  0  3  3  3  3  0  0  7  7  7  7  0  0  0 11  0  0  0  0 15 15 15 15  0  0  0  0 11  0  0  0  7  0  0  0  0  0  3  3  0  0  0
0  3  0  0  0  0  0  7  0  0  7  0  0  0 11  0  0  0  0 15  0 15  0  0  0  0  0 11  0  0  0  7  0  0  0  0  0  3  0  3  0  0  0  3  0  0  0  0  0  7  0  0  7  0  0  0 11  0  0  0  0 15  0 15  0  0  0  0  0 11  0  0  0  7  0  0  0  0  0  3  0  3  0  0
0  3  0  0  0  0  0  7  0  0  7  0  0  0 11  0  0  0  0 15  0  0 15  0  0 11 11 11 11  0  0  7  7  7  7  0  0  3  0  0  3  0  0  3  0  0  0  0  0  7  0  0  7  0  0  0 11  0  0  0  0 15  0  0 15  0  0 11 11 11 11  0  0  7  7  7  7  0  0  3  0  0  3  0
0  0  0  0  0  0  0  0  0  0  0  0  0  0  0  0  0  0  0  0  0  0  0  0  0  0  0  0  0  0  0  0  0  0  0  0  0  0  0  0  0  0  0  0  0  0  0  0  0  0  0  0  0  0  0  0  0  0  0  0  0  0  0  0  0  0  0  0  0  0  0  0  0  0  0  0  0  0  0  0  0  0  0  0
0  0  0  0  0  0  0  0  0  0  0  0  0  0  0  0  0  0  0  0  0  0  0  0  0  0  0  0  0  0  0  0  0  0  0  0  0  0  0  0  0  0  0  0  0  0  0  0  0  0  0  0  0  0  0  0  0  0  0  0  0  0  0  0  0  0  0  0  0  0  0  0  0  0  0  0  0  0  0  0  0  0  0  0
0  3  3  3  3  0  0  7  7  7  7  0 11 11 11 11 11  0  0 15 15 15 15  0  0 11 11 11 11  0  0  7  7  7  7  0  0  3  0  0  3  0  0  3  3  3  3  0  0  7  7  7  7  0 11 11 11 11 11  0  0 15 15 15 15  0  0 11 11 11 11  0  0  7  7  7  7  0  0  3  0  0  3  0
0  3  0  0  3  0  0  7  0  0  7  0  0  0 11  0  0  0  0 15  0  0 15  0  0  0  0 11  0  0  0  7  0  0  0  0  0  3  0  3  0  0  0  3  0  0  3  0  0  7  0  0  7  0  0  0 11  0  0  0  0 15  0  0 15  0  0  0  0 11  0  0  0  7  0  0  0  0  0  3  0  3  0  0
0  3  3  3  3  0  0  7  7  7  7  0  0  0 11  0  0  0  0 15 15 15 15  0  0  0  0 11  0  0  0  7  0  0  0  0  0  3  3  0  0  0  0  3  3  3  3  0  0  7  7  7  7  0  0  0 11  0  0  0  0 15 15 15 15  0  0  0  0 11  0  0  0  7  0  0  0  0  0  3  3  0  0  0
0  3  0  0  0  0  0  7  0  0  7  0  0  0 11  0  0  0  0 15  0 15  0  0  0  0  0 11  0  0  0  7  0  0  0  0  0  3  0  3  0  0  0  3  0  0  0  0  0  7  0  0  7  0  0  0 11  0  0  0  0 15  0 15  0  0  0  0  0 11  0  0  0  7  0  0  0  0  0  3  0  3  0  0
0  3  0  0  0  0  0  7  0  0  7  0  0  0 11  0  0  0  0 15  0  0 15  0  0 11 11 11 11  0  0  7  7  7  7  0  0  3  0  0  3  0  0  3  0  0  0  0  0  7  0  0  7  0  0  0 11  0  0  0  0 15  0  0 15  0  0 11 11 11 11  0  0  7  7  7  7  0  0  3  0  0  3  0
0  0  0  0  0  0  0  0  0  0  0  0  0  0  0  0  0  0  0  0  0  0  0  0  0  0  0  0  0  0  0  0  0  0  0  0  0  0  0  0  0  0  0  0  0  0  0  0  0  0  0  0  0  0  0  0  0  0  0  0  0  0  0  0  0  0  0  0  0  0  0  0  0  0  0  0  0  0  0  0  0  0  0  0
0  0  0  0  0  0  0  0  0  0  0  0  0  0  0  0  0  0  0  0  0  0  0  0  0  0  0  0  0  0  0  0  0  0  0  0  0  0  0  0  0  0  0  0  0  0  0  0  0  0  0  0  0  0  0  0  0  0  0  0  0  0  0  0  0  0  0  0  0  0  0  0  0  0  0  0  0  0  0  0  0  0  0  0
0  3  3  3  3  0  0  7  7  7  7  0 11 11 11 11 11  0  0 15 15 15 15  0  0 11 11 11 11  0  0  7  7  7  7  0  0  3  0  0  3  0  0  3  3  3  3  0  0  7  7  7  7  0 11 11 11 11 11  0  0 15 15 15 15  0  0 11 11 11 11  0  0  7  7  7  7  0  0  3  0  0  3  0
0  3  0  0  3  0  0  7  0  0  7  0  0  0 11  0  0  0  0 15  0  0 15  0  0  0  0 11  0  0  0  7  0  0  0  0  0  3  0  3  0  0  0  3  0  0  3  0  0  7  0  0  7  0  0  0 11  0  0  0  0 15  0  0 15  0  0  0  0 11  0  0  0  7  0  0  0  0  0  3  0  3  0  0
0  3  3  3  3  0  0  7  7  7  7  0  0  0 11  0  0  0  0 15 15 15 15  0  0  0  0 11  0  0  0  7  0  0  0  0  0  3  3  0  0  0  0  3  3  3  3  0  0  7  7  7  7  0  0  0 11  0  0  0  0 15 15 15 15  0  0  0  0 11  0  0  0  7  0  0  0  0  0  3  3  0  0  0
0  3  0  0  0  0  0  7  0  0  7  0  0  0 11  0  0  0  0 15  0 15  0  0  0  0  0 11  0  0  0  7  0  0  0  0  0  3  0  3  0  0  0  3  0  0  0  0  0  7  0  0  7  0  0  0 11  0  0  0  0 15  0 15  0  0  0  0  0 11  0  0  0  7  0  0  0  0  0  3  0  3  0  0
0  3  0  0  0  0  0  7  0  0  7  0  0  0 11  0  0  0  0 15  0  0 15  0  0 11 11 11 11  0  0  7  7  7  7  0  0  3  0  0  3  0  0  3  0  0  0  0  0  7  0  0  7  0  0  0 11  0  0  0  0 15  0  0 15  0  0 11 11 11 11  0  0  7  7  7  7  0  0  3  0  0  3  0
0  0  0  0  0  0  0  0  0  0  0  0  0  0  0  0  0  0  0  0  0  0  0  0  0  0  0  0  0  0  0  0  0  0  0  0  0  0  0  0  0  0  0  0  0  0  0  0  0  0  0  0  0  0  0  0  0  0  0  0  0  0  0  0  0  0  0  0  0  0  0  0  0  0  0  0  0  0  0  0  0  0  0  0
0  0  0  0  0  0  0  0  0  0  0  0  0  0  0  0  0  0  0  0  0  0  0  0  0  0  0  0  0  0  0  0  0  0  0  0  0  0  0  0  0  0  0  0  0  0  0  0  0  0  0  0  0  0  0  0  0  0  0  0  0  0  0  0  0  0  0  0  0  0  0  0  0  0  0  0  0  0  0  0  0  0  0  0
0  3  3  3  3  0  0  7  7  7  7  0 11 11 11 11 11  0  0 15 15 15 15  0  0 11 11 11 11  0  0  7  7  7  7  0  0  3  0  0  3  0  0  3  3  3  3  0  0  7  7  7  7  0 11 11 11 11 11  0  0 15 15 15 15  0  0 11 11 11 11  0  0  7  7  7  7  0  0  3  0  0  3  0
0  3  0  0  3  0  0  7  0  0  7  0  0  0 11  0  0  0  0 15  0  0 15  0  0  0  0 11  0  0  0  7  0  0  0  0  0  3  0  3  0  0  0  3  0  0  3  0  0  7  0  0  7  0  0  0 11  0  0  0  0 15  0  0 15  0  0  0  0 11  0  0  0  7  0  0  0  0  0  3  0  3  0  0
0  3  3  3  3  0  0  7  7  7  7  0  0  0 11  0  0  0  0 15 15 15 15  0  0  0  0 11  0  0  0  7  0  0  0  0  0  3  3  0  0  0  0  3  3  3  3  0  0  7  7  7  7  0  0  0 11  0  0  0  0 15 15 15 15  0  0  0  0 11  0  0  0  7  0  0  0  0  0  3  3  0  0  0
0  3  0  0  0  0  0  7  0  0  7  0  0  0 11  0  0  0  0 15  0 15  0  0  0  0  0 11  0  0  0  7  0  0  0  0  0  3  0  3  0  0  0  3  0  0  0  0  0  7  0  0  7  0  0  0 11  0  0  0  0 15  0 15  0  0  0  0  0 11  0  0  0  7  0  0  0  0  0  3  0  3  0  0
0  3  0  0  0  0  0  7  0  0  7  0  0  0 11  0  0  0  0 15  0  0 15  0  0 11 11 11 11  0  0  7  7  7  7  0  0  3  0  0  3  0  0  3  0  0  0  0  0  7  0  0  7  0  0  0 11  0  0  0  0 15  0  0 15  0  0 11 11 11 11  0  0  7  7  7  7  0  0  3  0  0  3  0
0  0  0  0  0  0  0  0  0  0  0  0  0  0  0  0  0  0  0  0  0  0  0  0  0  0  0  0  0  0  0  0  0  0  0  0  0  0  0  0  0  0  0  0  0  0  0  0  0  0  0  0  0  0  0  0  0  0  0  0  0  0  0  0  0  0  0  0  0  0  0  0  0  0  0  0  0  0  0  0  0  0  0  0
0  0  0  0  0  0  0  0  0  0  0  0  0  0  0  0  0  0  0  0  0  0  0  0  0  0  0  0  0  0  0  0  0  0  0  0  0  0  0  0  0  0  0  0  0  0  0  0  0  0  0  0  0  0  0  0  0  0  0  0  0  0  0  0  0  0  0  0  0  0  0  0  0  0  0  0  0  0  0  0  0  0  0  0
0  3  3  3  3  0  0  7  7  7  7  0 11 11 11 11 11  0  0 15 15 15 15  0  0 11 11 11 11  0  0  7  7  7  7  0  0  3  0  0  3  0  0  3  3  3  3  0  0  7  7  7  7  0 11 11 11 11 11  0  0 15 15 15 15  0  0 11 11 11 11  0  0  7  7  7  7  0  0  3  0  0  3  0
0  3  0  0  3  0  0  7  0  0  7  0  0  0 11  0  0  0  0 15  0  0 15  0  0  0  0 11  0  0  0  7  0  0  0  0  0  3  0  3  0  0  0  3  0  0  3  0  0  7  0  0  7  0  0  0 11  0  0  0  0 15  0  0 15  0  0  0  0 11  0  0  0  7  0  0  0  0  0  3  0  3  0  0
0  3  3  3  3  0  0  7  7  7  7  0  0  0 11  0  0  0  0 15 15 15 15  0  0  0  0 11  0  0  0  7  0  0  0  0  0  3  3  0  0  0  0  3  3  3  3  0  0  7  7  7  7  0  0  0 11  0  0  0  0 15 15 15 15  0  0  0  0 11  0  0  0  7  0  0  0  0  0  3  3  0  0  0
0  3  0  0  0  0  0  7  0  0  7  0  0  0 11  0  0  0  0 15  0 15  0  0  0  0  0 11  0  0  0  7  0  0  0  0  0  3  0  3  0  0  0  3  0  0  0  0  0  7  0  0  7  0  0  0 11  0  0  0  0 15  0 15  0  0  0  0  0 11  0  0  0  7  0  0  0  0  0  3  0  3  0  0
0  3  0  0  0  0  0  7  0  0  7  0  0  0 11  0  0  0  0 15  0  0 15  0  0 11 11 11 11  0  0  7  7  7  7  0  0  3  0  0  3  0  0  3  0  0  0  0  0  7  0  0  7  0  0  0 11  0  0  0  0 15  0  0 15  0  0 11 11 11 11  0  0  7  7  7  7  0  0  3  0  0  3  0
0  0  0  0  0  0  0  0  0  0  0  0  0  0  0  0  0  0  0  0  0  0  0  0  0  0  0  0  0  0  0  0  0  0  0  0  0  0  0  0  0  0  0  0  0  0  0  0  0  0  0  0  0  0  0  0  0  0  0  0  0  0  0  0  0  0  0  0  0  0  0  0  0  0  0  0  0  0  0  0  0  0  0  0
0  0  0  0  0  0  0  0  0  0  0  0  0  0  0  0  0  0  0  0  0  0  0  0  0  0  0  0  0  0  0  0  0  0  0  0  0  0  0  0  0  0  0  0  0  0  0  0  0  0  0  0  0  0  0  0  0  0  0  0  0  0  0  0  0  0  0  0  0  0  0  0  0  0  0  0  0  0  0  0  0  0  0  0
0  3  3  3  3  0  0  7  7  7  7  0 11 11 11 11 11  0  0 15 15 15 15  0  0 11 11 11 11  0  0  7  7  7  7  0  0  3  0  0  3  0  0  3  3  3  3  0  0  7  7  7  7  0 11 11 11 11 11  0  0 15 15 15 15  0  0 11 11 11 11  0  0  7  7  7  7  0  0  3  0  0  3  0
0  3  0  0  3  0  0  7  0  0  7  0  0  0 11  0  0  0  0 15  0  0 15  0  0  0  0 11  0  0  0  7  0  0  0  0  0  3  0  3  0  0  0  3  0  0  3  0  0  7  0  0  7  0  0  0 11  0  0  0  0 15  0  0 15  0  0  0  0 11  0  0  0  7  0  0  0  0  0  3  0  3  0  0
0  3  3  3  3  0  0  7  7  7  7  0  0  0 11  0  0  0  0 15 15 15 15  0  0  0  0 11  0  0  0  7  0  0  0  0  0  3  3  0  0  0  0  3  3  3  3  0  0  7  7  7  7  0  0  0 11  0  0  0  0 15 15 15 15  0  0  0  0 11  0  0  0  7  0  0  0  0  0  3  3  0  0  0
0  3  0  0  0  0  0  7  0  0  7  0  0  0 11  0  0  0  0 15  0 15  0  0  0  0  0 11  0  0  0  7  0  0  0  0  0  3  0  3  0  0  0  3  0  0  0  0  0  7  0  0  7  0  0  0 11  0  0  0  0 15  0 15  0  0  0  0  0 11  0  0  0  7  0  0  0  0  0  3  0  3  0  0
0  3  0  0  0  0  0  7  0  0  7  0  0  0 11  0  0  0  0 15  0  0 15  0  0 11 11 11 11  0  0  7  7  7  7  0  0  3  0  0  3  0  0  3  0  0  0  0  0  7  0  0  7  0  0  0 11  0  0  0  0 15  0  0 15  0  0 11 11 11 11  0  0  7  7  7  7  0  0  3  0  0  3  0
0  0  0  0  0  0  0  0  0  0  0  0  0  0  0  0  0  0  0  0  0  0  0  0  0  0  0  0  0  0  0  0  0  0  0  0  0  0  0  0  0  0  0  0  0  0  0  0  0  0  0  0  0  0  0  0  0  0  0  0  0  0  0  0  0  0  0  0  0  0  0  0  0  0  0  0  0  0  0  0  0  0  0  0
